<?xml version="1.0" standalone="no"?>
<!DOCTYPE svg PUBLIC "-//W3C//DTD SVG 20010904//EN"
 "http://www.w3.org/TR/2001/REC-SVG-20010904/DTD/svg10.dtd">
<svg version="1.0" xmlns="http://www.w3.org/2000/svg"
 width="479.000000pt" height="110.000000pt" viewBox="0 0 479.000000 110.000000"
 preserveAspectRatio="xMidYMid meet">

<g transform="translate(0.000000,110.000000) scale(0.100000,-0.100000)"
fill="#000000" stroke="none">
<path d="M645 1089 c-36 -11 -490 -362 -519 -402 -18 -25 -21 -45 -24 -167 -4
-154 -9 -141 71 -156 l37 -6 0 125 0 124 233 183 c127 101 238 188 244 193 9
6 22 4 39 -8 44 -28 468 -358 476 -369 4 -6 8 -64 8 -130 l0 -118 38 6 c80 15
74 3 70 150 -3 123 -5 135 -29 172 -15 22 -56 59 -93 83 l-66 43 0 110 c0 134
-6 148 -65 148 -24 0 -47 -6 -52 -12 -4 -7 -10 -42 -13 -77 l-5 -64 -99 78
c-133 104 -171 118 -251 94z"/>
<path d="M4100 731 c-25 -47 36 -83 64 -38 8 12 8 22 0 35 -16 25 -51 27 -64
3z"/>
<path d="M3518 730 c12 -5 22 -15 22 -22 0 -7 -19 -78 -43 -158 -36 -122 -46
-146 -67 -157 -22 -11 -14 -13 65 -12 64 0 83 3 68 9 -27 11 -29 35 -9 100
l13 45 56 6 c66 7 100 27 122 70 19 36 13 79 -17 105 -16 16 -39 19 -127 21
-74 2 -99 0 -83 -7z m147 -27 c21 -20 14 -76 -13 -113 -21 -28 -72 -40 -72
-17 0 11 21 92 35 135 6 17 31 15 50 -5z"/>
<path d="M4566 661 c-16 -16 -41 -35 -57 -41 -31 -13 -39 -30 -13 -30 10 0 14
-6 10 -17 -3 -10 -15 -51 -26 -91 -24 -79 -22 -102 10 -102 29 0 76 26 84 47
6 15 5 15 -14 -2 -11 -10 -23 -15 -27 -12 -3 4 5 43 17 88 16 57 29 83 41 86
22 6 34 33 14 33 -18 0 -17 -3 -6 38 12 40 3 41 -33 3z"/>
<path d="M600 615 l0 -46 43 3 c42 3 42 3 42 43 0 40 0 40 -42 43 l-43 3 0
-46z"/>
<path d="M710 615 l0 -45 40 0 40 0 0 45 0 45 -40 0 -40 0 0 -45z"/>
<path d="M3848 600 c-91 -48 -124 -179 -54 -211 75 -35 196 60 196 153 0 39
-7 51 -37 67 -31 16 -62 13 -105 -9z m80 -23 c5 -38 -24 -127 -52 -162 -51
-63 -74 6 -37 106 34 87 82 118 89 56z"/>
<path d="M4115 615 c-5 -2 -23 -6 -39 -10 -22 -5 -26 -9 -16 -15 12 -7 9 -24
-15 -100 -31 -97 -29 -109 18 -110 19 0 77 54 77 72 0 6 -9 0 -19 -13 -11 -13
-22 -21 -25 -18 -5 5 28 127 51 186 5 12 -9 16 -32 8z"/>
<path d="M4242 610 c-34 -8 -54 -20 -34 -20 17 0 15 -25 -13 -119 -14 -47 -25
-87 -25 -89 0 -2 15 -2 32 0 27 3 34 9 43 38 6 19 18 49 27 65 20 38 76 91 85
82 3 -4 -4 -40 -17 -81 -25 -80 -22 -106 10 -106 26 0 66 26 75 48 5 14 4 14
-13 -1 -10 -9 -21 -17 -25 -17 -3 0 5 35 19 78 28 90 29 105 9 122 -21 18 -55
3 -99 -44 -41 -43 -41 -44 -20 32 7 24 2 25 -54 12z"/>
<path d="M600 510 l0 -41 43 3 c41 3 42 4 42 38 0 34 -1 35 -42 38 l-43 3 0
-41z"/>
<path d="M710 510 l0 -40 40 0 40 0 0 40 0 40 -40 0 -40 0 0 -40z"/>
<path d="M1180 315 c-285 -71 -296 -72 -389 -39 l-79 28 -56 -43 c-53 -40 -64
-61 -30 -61 8 0 32 11 52 25 20 14 42 25 48 25 14 0 152 -104 174 -130 11 -13
45 -23 123 -34 134 -20 160 -20 198 -1 25 13 94 104 85 112 -1 2 -54 -4 -116
-12 -159 -21 -164 -17 -23 14 67 15 129 34 139 42 19 15 74 98 74 111 0 12
-11 10 -200 -37z"/>
</g>
</svg>
